<svg class="absolute -bottom-48 left-[-40%] h-320 w-[180%] lg:-right-40 lg:bottom-auto lg:left-auto lg:top-[-40%] lg:h-[180%] lg:w-7xl" aria-hidden="true"><defs><radialGradient id=":S1:-desktop" cx="100%"><stop offset="0%" stop-color="rgba(56, 189, 248, 0.3)"></stop><stop offset="53.95%" stop-color="rgba(0, 71, 255, 0.09)"></stop><stop offset="100%" stop-color="rgba(10, 14, 23, 0)"></stop></radialGradient><radialGradient id=":S1:-mobile" cy="100%"><stop offset="0%" stop-color="rgba(56, 189, 248, 0.3)"></stop><stop offset="53.95%" stop-color="rgba(0, 71, 255, 0.09)"></stop><stop offset="100%" stop-color="rgba(10, 14, 23, 0)"></stop></radialGradient></defs><rect width="100%" height="100%" fill="url(#:S1:-desktop)" class="hidden lg:block"></rect><rect width="100%" height="100%" fill="url(#:S1:-mobile)" class="lg:hidden"></rect></svg><div class="absolute inset-x-0 bottom-0 right-0 h-px bg-white mix-blend-overlay lg:left-auto lg:top-0 lg:h-auto lg:w-px"></div></div><div class="relative flex w-full lg:pointer-events-auto lg:mr-[calc(max(2rem,50%-38rem)+40rem)] lg:min-w-lg lg:overflow-y-auto lg:overflow-x-hidden lg:pl-[max(4rem,calc(50%-38rem))]"><div class="mx-auto max-w-lg lg:mx-0 lg:flex lg:w-96 lg:max-w-none lg:flex-col lg:before:flex-1 lg:before:pt-6"><div class="pb-16 pt-20 sm:pb-20 sm:pt-32 lg:py-20"><div class="relative"><svg viewBox="0 0 881 211" fill="white" aria-hidden="true" class="pointer-events-none absolute w-220.25 origin-top-right rotate-30 overflow-visible opacity-70 -right-44 top-14"><defs><filter id=":R1cpuja:"><feGaussianBlur in="SourceGraphic" stdDeviation=".5"></feGaussianBlur></filter></defs><path stroke="white" stroke-opacity="0.2" stroke-dasharray="1" stroke-dashoffset="1" pathLength="1" fill="transparent" d="M 247,103L261,86L307,104L357,36" class="invisible" style="stroke-dashoffset: 0; visibility: visible;"></path><g class="opacity-0" style="opacity: 1;"><circle cx="247" cy="103" r="1" style="transform-origin: 15.4375rem 6.4375rem; opacity: 1; transform: scale(var(--motion-scale));"></circle></g><g class="opacity-0" style="opacity: 1;"><circle cx="261" cy="86" r="1" style="transform-origin: 16.3125rem 5.375rem; opacity: 1; transform: scale(var(--motion-scale));"></circle></g><g class="opacity-0" style="opacity: 1;"><circle cx="307" cy="104" r="1" style="transform-origin: 19.1875rem 6.5rem; opacity: 1; transform: scale(var(--motion-scale));"></circle></g><g class="opacity-0" style="opacity: 1;"><circle cx="357" cy="36" r="1" style="transform-origin: 22.3125rem 2.25rem; opacity: 1; transform: scale(var(--motion-scale));"></circle></g><path stroke="white" stroke-opacity="0.2" stroke-dasharray="1" stroke-dashoffset="1" pathLength="1" fill="transparent" d="M 586,120L516,100L491,62L440,107L477,180L516,100" class="invisible" style="stroke-dashoffset: 0; visibility: visible; fill: rgba(255, 255, 255, 0.02);"></path><g class="opacity-0" style="opacity: 1;"><circle cx="586" cy="120" r="1" style="transform-origin: 36.625rem 7.5rem; opacity: 1; transform: scale(var(--motion-scale));"></circle></g><g class="opacity-0" style="opacity: 1;"><circle cx="516" cy="100" r="1" style="transform-origin: 32.25rem 6.25rem; opacity: 1; transform: scale(var(--motion-scale));"></circle></g><g class="opacity-0" style="opacity: 1;"><circle cx="491" cy="62" r="1" style="transform-origin: 30.6875rem 3.875rem; opacity: 1; transform: scale(var(--motion-scale));"></circle></g><g class="opacity-0" style="opacity: 1;"><circle cx="440" cy="107" r="1" style="transform-origin: 27.5rem 6.6875rem; opacity: 1; transform: scale(var(--motion-scale));"></circle></g><g class="opacity-0" style="opacity: 1;"><circle cx="477" cy="180" r="1" style="transform-origin: 29.8125rem 11.25rem; opacity: 1; transform: scale(var(--motion-scale));"></circle></g><path stroke="white" stroke-opacity="0.2" stroke-dasharray="1" stroke-dashoffset="1" pathLength="1" fill="transparent" d="M 733,100L803,120L879,113L823,164L803,120" class="invisible" style="stroke-dashoffset: 0; visibility: visible; fill: rgba(255, 255, 255, 0.02);"></path><g class="opacity-0" style="opacity: 1;"><circle cx="733" cy="100" r="1" style="transform-origin: 45.8125rem 6.25rem; opacity: 1; transform: scale(var(--motion-scale));"></circle></g><g class="opacity-0" style="opacity: 1;"><circle cx="803" cy="120" r="1" style="transform-origin: 50.1875rem 7.5rem; opacity: 1; transform: scale(var(--motion-scale));"></circle></g><g class="opacity-0" style="opacity: 1;"><circle cx="879" cy="113" r="1" style="transform-origin: 54.9375rem 7.0625rem; opacity: 1; transform: scale(var(--motion-scale));"></circle></g><g class="opacity-0" style="opacity: 1;"><circle cx="823" cy="164" r="1" style="transform-origin: 51.4375rem 10.25rem; opacity: 1; transform: scale(var(--motion-scale));"></circle></g><g class="opacity-0" style="opacity: 1;"><circle cx="4" cy="4" r="1" style="transform-origin: 0.25rem 0.25rem; opacity: 0.2; transform: scale(var(--motion-scale));" filter="url(#:R1cpuja:)"></circle></g><g class="opacity-0" style="opacity: 1;"><circle cx="4" cy="44" r="1" style="transform-origin: 0.25rem 2.75rem; opacity: 0.2; transform: scale(var(--motion-scale));"></circle></g><g class="opacity-0" style="opacity: 1;"><circle cx="36" cy="22" r="1" style="transform-origin: 2.25rem 1.375rem; opacity: 1; transform: scale(var(--motion-scale));"></circle></g><g class="opacity-0" style="opacity: 1;"><circle cx="50" cy="146" r="1" style="transform-origin: 3.125rem 9.125rem; opacity: 0.2; transform: scale(var(--motion-scale));" filter="url(#:R1cpuja:)"></circle></g><g class="opacity-0" style="opacity: 1;"><circle cx="64" cy="43" r="1" style="transform-origin: 4rem 2.6875rem; opacity: 0.2; transform: scale(var(--motion-scale));" filter="url(#:R1cpuja:)"></circle></g><g class="opacity-0" style="opacity: 1;"><circle cx="76" cy="30" r="1" style="transform-origin: 4.75rem 1.875rem; opacity: 0.2; transform: scale(var(--motion-scale));"></circle></g><g class="opacity-0" style="opacity: 1;"><circle cx="101" cy="116" r="1" style="transform-origin: 6.3125rem 7.25rem; opacity: 1; transform: scale(var(--motion-scale));"></circle></g><g class="opacity-0" style="opacity: 1;"><circle cx="140" cy="36" r="1" style="transform-origin: 8.75rem 2.25rem; opacity: 0.2; transform: scale(var(--motion-scale));"></circle></g><g class="opacity-0" style="opacity: 1;"><circle cx="149" cy="134" r="1" style="transform-origin: 9.3125rem 8.375rem; opacity: 1; transform: scale(var(--motion-scale));"></circle></g><g class="opacity-0" style="opacity: 1;"><circle cx="162" cy="74" r="1" style="transform-origin: 10.125rem 4.625rem; opacity: 0.2; transform: scale(var(--motion-scale));"></circle></g><g class="opacity-0" style="opacity: 1;"><circle cx="171" cy="96" r="1" style="transform-origin: 10.6875rem 6rem; opacity: 0.2; transform: scale(var(--motion-scale));" filter="url(#:R1cpuja:)"></circle></g><g class="opacity-0" style="opacity: 1;"><circle cx="210" cy="56" r="1" style="transform-origin: 13.125rem 3.5rem; opacity: 0.2; transform: scale(var(--motion-scale));" filter="url(#:R1cpuja:)"></circle></g><g class="opacity-0" style="opacity: 1;"><circle cx="235" cy="90" r="1" style="transform-origin: 14.6875rem 5.625rem; opacity: 1; transform: scale(var(--motion-scale));"></circle></g><g class="opacity-0" style="opacity: 1;"><circle cx="275" cy="82" r="1" style="transform-origin: 17.1875rem 5.125rem; opacity: 0.2; transform: scale(var(--motion-scale));" filter="url(#:R1cpuja:)"></circle></g><g class="opacity-0" style="opacity: 1;"><circle cx="306" cy="6" r="1" style="transform-origin: 19.125rem 0.375rem; opacity: 1; transform: scale(var(--motion-scale));"></circle></g><g class="opacity-0" style="opacity: 1;"><circle cx="307" cy="64" r="1" style="transform-origin: 19.1875rem 4rem; opacity: 0.2; transform: scale(var(--motion-scale));" filter="url(#:R1cpuja:)"></circle></g><g class="opacity-0" style="opacity: 1;"><circle cx="380" cy="68" r="1" style="transform-origin: 23.75rem 4.25rem; opacity: 0.2; transform: scale(var(--motion-scale));"></circle></g><g class="opacity-0" style="opacity: 1;"><circle cx="380" cy="108" r="1" style="transform-origin: 23.75rem 6.75rem; opacity: 0.2; transform: scale(var(--motion-scale));" filter="url(#:R1cpuja:)"></circle></g><g class="opacity-0" style="opacity: 1;"><circle cx="391" cy="148" r="1" style="transform-origin: 24.4375rem 9.25rem; opacity: 0.2; transform: scale(var(--motion-scale));" filter="url(#:R1cpuja:)"></circle></g><g class="opacity-0" style="opacity: 1;"><circle cx="405" cy="18" r="1" style="transform-origin: 25.3125rem 1.125rem; opacity: 0.2; transform: scale(var(--motion-scale));"></circle></g><g class="opacity-0" style="opacity: 1;"><circle cx="412" cy="86" r="1" style="transform-origin: 25.75rem 5.375rem; opacity: 0.2; transform: scale(var(--motion-scale));" filter="url(#:R1cpuja:)"></circle></g><g class="opacity-0" style="opacity: 1;"><circle cx="426" cy="210" r="1" style="transform-origin: 26.625rem 13.125rem; opacity: 0.2; transform: scale(var(--motion-scale));" filter="url(#:R1cpuja:)"></circle></g><g class="opacity-0" style="opacity: 1;"><circle cx="427" cy="56" r="1" style="transform-origin: 26.6875rem 3.5rem; opacity: 0.2; transform: scale(var(--motion-scale));" filter="url(#:R1cpuja:)"></circle></g><g class="opacity-0" style="opacity: 1;"><circle cx="538" cy="138" r="1" style="transform-origin: 33.625rem 8.625rem; opacity: 1; transform: scale(var(--motion-scale));"></circle></g><g class="opacity-0" style="opacity: 1;"><circle cx="563" cy="88" r="1" style="transform-origin: 35.1875rem 5.5rem; opacity: 0.2; transform: scale(var(--motion-scale));" filter="url(#:R1cpuja:)"></circle></g><g class="opacity-0" style="opacity: 1;"><circle cx="611" cy="154" r="1" style="transform-origin: 38.1875rem 9.625rem; opacity: 0.2; transform: scale(var(--motion-scale));" filter="url(#:R1cpuja:)"></circle></g><g class="opacity-0" style="opacity: 1;"><circle cx="637" cy="150" r="1" style="transform-origin: 39.8125rem 9.375rem; opacity: 1; transform: scale(var(--motion-scale));"></circle></g><g class="opacity-0" style="opacity: 1;"><circle cx="651" cy="146" r="1" style="transform-origin: 40.6875rem 9.125rem; opacity: 0.2; transform: scale(var(--motion-scale));"></circle></g><g class="opacity-0" style="opacity: 1;"><circle cx="682" cy="70" r="1" style="transform-origin: 42.625rem 4.375rem; opacity: 0.2; transform: scale(var(--motion-scale));" filter="url(#:R1cpuja:)"></circle></g><g class="opacity-0" style="opacity: 1;"><circle cx="683" cy="128" r="1" style="transform-origin: 42.6875rem 8rem; opacity: 1; transform: scale(var(--motion-scale));"></circle></g><g class="opacity-0" style="opacity: 1;"><circle cx="781" cy="82" r="1" style="transform-origin: 48.8125rem 5.125rem; opacity: 0.2; transform: scale(var(--motion-scale));" filter="url(#:R1cpuja:)"></circle></g><g class="opacity-0" style="opacity: 1;"><circle cx="785" cy="158" r="1" style="transform-origin: 49.0625rem 9.875rem; opacity: 0.2; transform: scale(var(--motion-scale));"></circle></g><g class="opacity-0" style="opacity: 1;"><circle cx="832" cy="146" r="1" style="transform-origin: 52rem 9.125rem; opacity: 0.2; transform: scale(var(--motion-scale));" filter="url(#:R1cpuja:)"></circle></g><g class="opacity-0" style="opacity: 1;"><circle cx="852" cy="89" r="1" style="transform-origin: 53.25rem 5.5625rem; opacity: 1; transform: scale(var(--motion-scale));"></circle></g></svg><div><a href="/"><svg viewBox="0 0 140 32" fill="none" aria-hidden="true" class="inline-block h-8 w-auto"><title>Commit</title><mask id=":S2:-m" fill="#fff"><path fill-rule="evenodd" clip-rule="evenodd" d="M31.75 18h-8.13a8 8 0 01-15.5 0H0a16 16 0 0031.75 0zm0-4h-8.13a8 8 0 00-15.5 0H0a16 16 0 0131.75 0z"></path></mask><path fill-rule="evenodd" clip-rule="evenodd" d="M31.75 18h-8.13a8 8 0 01-15.5 0H0a16 16 0 0031.75 0zm0-4h-8.13a8 8 0 00-15.5 0H0a16 16 0 0131.75 0z" fill="url(#:S2:-g)"></path><path d="M31.75 18l1 .12.13-1.12h-1.13v1zm-8.13 0v-1h-.77l-.2.75.97.25zm-15.5 0l.98-.25-.2-.75h-.77v1zM0 18v-1h-1.13l.14 1.12L0 18zm23.62-4l-.96.25.19.75h.77v-1zm8.13 0v1h1.13l-.14-1.12-.99.12zM8.13 14v1h.77l.2-.75-.97-.25zM0 14l-1-.12-.13 1.12H0v-1zm31.75 3h-8.13v2h8.13v-2zm-9.1.75A7 7 0 0115.89 23v2a9 9 0 008.71-6.75l-1.93-.5zM15.89 23a7 7 0 01-6.78-5.25l-1.94.5A9 9 0 0015.88 25v-2zm-7.75-6H0v2h8.13v-2zm7.75 14A15 15 0 01.99 17.88l-1.98.24A17 17 0 0015.88 33v-2zm14.88-13.12A15 15 0 0115.88 31v2a17 17 0 0016.86-14.88l-1.98-.24zM23.62 15h8.13v-2h-8.13v2zm-7.74-6a7 7 0 016.78 5.25l1.93-.5A9 9 0 0015.88 7v2zM9.1 14.25A7 7 0 0115.88 9V7a9 9 0 00-8.72 6.75l1.94.5zM0 15h8.13v-2H0v2zm1-.88A15 15 0 0115.87 1v-2A17 17 0 00-1 13.88l1.98.24zM15.87 1a15 15 0 0114.88 13.12l1.98-.24A17 17 0 0015.88-1v2z" fill="#fff" fill-opacity="0.2" mask="url(#:S2:-m)"></path><path d="M52.42 24.24c4.5 0 7.83-2.54 8.26-6.36h-4.37c-.33 1.63-1.94 2.69-3.89 2.69-2.7 0-4.46-1.66-4.46-5.33 0-3.65 1.75-5.3 4.46-5.3 2.02 0 3.5 1.1 3.9 2.66h4.36c-.43-3.8-3.7-6.34-8.26-6.34-5.32 0-8.88 3.24-8.88 8.98 0 5.76 3.56 9 8.88 9zm16.35 0c4.18 0 6.56-2.71 6.56-6.72 0-4.25-2.62-6.72-6.56-6.72-4.17 0-6.57 2.71-6.57 6.72 0 4.25 2.64 6.72 6.57 6.72zm0-3.29c-1.5 0-2.47-1.05-2.47-3.43 0-2.4.99-3.46 2.47-3.46 1.5 0 2.48 1.06 2.48 3.46s-.99 3.43-2.48 3.43zm8.6 3.05h4.06v-7.27c0-1.35.8-2.64 2.33-2.64 1.42 0 2 .96 2 2.93V24h4.07v-7.27c0-1.35.8-2.64 2.3-2.64 1.42 0 2.02.96 2.02 2.93V24h4.06v-7.87c0-3.87-1.94-5.33-4.4-5.33-1.91 0-3.57.94-4.14 2.8h-.2c-.7-2.06-2.3-2.8-4.05-2.8-1.68 0-3.2.84-3.8 2.47h-.19l-.12-2.23h-3.93V24zm23.5 0h4.05v-7.27c0-1.35.8-2.64 2.33-2.64 1.41 0 1.99.96 1.99 2.93V24h4.08v-7.27c0-1.35.8-2.64 2.3-2.64 1.42 0 2.02.96 2.02 2.93V24h4.05v-7.87c0-3.87-1.94-5.33-4.39-5.33-1.92 0-3.57.94-4.15 2.8h-.2c-.69-2.06-2.3-2.8-4.05-2.8-1.68 0-3.19.84-3.79 2.47h-.2l-.11-2.23h-3.94V24zm23.48-14.47h4.05V6.5h-4.05v3.03zm0 14.47h4.05V11.04h-4.05V24zm11.45 0h2.95v-3.26h-1.51c-.63 0-.99-.17-.99-.9V14.3h2.5v-3.26h-2.5v-3.8l-4.05.37v3.43h-2.23v3.26h2.23v6.3c0 2.06.72 3.4 3.6 3.4z" fill="#fff"></path><defs><linearGradient id=":S2:-g" x1="15.88" y1="0" x2="15.88" y2="32" gradientUnits="userSpaceOnUse"><stop stop-color="#AAE4FF"></stop><stop offset="1" stop-color="#38BDF8"></stop></linearGradient></defs></svg></a></div><h1 class="mt-14 font-display text-4xl/tight font-light text-white">Open-source Git client<!-- --> <span class="text-sky-300">for macOS minimalists</span></h1><p class="mt-4 text-sm/6 text-gray-300">Commit is a lightweight Git client you can open from anywhere any time you’re ready to commit your work with a single keyboard shortcut. It’s fast, beautiful, and completely unnecessary.</p><form class="relative isolate mt-8 flex items-center pr-1"><label for=":S3:" class="sr-only">Email address</label><input required="" type="email" autocomplete="email" id=":S3:" placeholder="Email address" class="peer w-0 flex-auto bg-transparent px-4 py-2.5 text-base text-white placeholder:text-gray-500 focus:outline-hidden sm:text-[0.8125rem]/6" name="email"><button class="group relative isolate flex-none rounded-md py-1.5 text-[0.8125rem]/6 font-semibold text-white pl-2.5 pr-[calc(9/16*1rem)]" type="submit"><span class="absolute inset-0 rounded-md bg-linear-to-b from-white/80 to-white opacity-10 transition-opacity group-hover:opacity-15"></span><span class="absolute inset-0 rounded-md opacity-7.5 shadow-[inset_0_1px_1px_white] transition-opacity group-hover:opacity-10"></span>Get updates<!-- --> <span aria-hidden="true">→</span></button><div class="absolute inset-0 -z-10 rounded-lg transition peer-focus:ring-4 peer-focus:ring-sky-300/15"></div><div class="absolute inset-0 -z-10 rounded-lg bg-white/2.5 ring-1 ring-white/15 transition peer-focus:ring-sky-300"></div></form><div class="mt-8 flex flex-wrap justify-center gap-x-1 gap-y-3 sm:gap-x-2 lg:justify-start"><a class="flex-none group relative isolate flex items-center rounded-lg px-2 py-0.5 text-[0.8125rem]/6 font-medium text-white/30 transition-colors hover:text-sky-300 gap-x-3" href="#"><span class="absolute inset-0 -z-10 scale-75 rounded-lg bg-white/5 opacity-0 transition group-hover:scale-100 group-hover:opacity-100"></span><svg viewBox="0 0 16 16" aria-hidden="true" fill="currentColor" class="h-4 w-4 flex-none"><path d="M7 3.41a1 1 0 0 0-.668-.943L2.275 1.039a.987.987 0 0 0-.877.166c-.25.192-.398.493-.398.812V12.2c0 .454.296.853.725.977l3.948 1.365A1 1 0 0 0 7 13.596V3.41ZM9 13.596a1 1 0 0 0 1.327.946l3.948-1.365c.429-.124.725-.523.725-.977V2.017c0-.32-.147-.62-.398-.812a.987.987 0 0 0-.877-.166L9.668 2.467A1 1 0 0 0 9 3.41v10.186Z"></path></svg><span class="self-baseline text-white">Documentation</span></a><a class="flex-none group relative isolate flex items-center rounded-lg px-2 py-0.5 text-[0.8125rem]/6 font-medium text-white/30 transition-colors hover:text-sky-300 gap-x-3" href="#"><span class="absolute inset-0 -z-10 scale-75 rounded-lg bg-white/5 opacity-0 transition group-hover:scale-100 group-hover:opacity-100"></span><svg viewBox="0 0 16 16" aria-hidden="true" fill="currentColor" class="h-4 w-4 flex-none"><path d="M8 .198a8 8 0 0 0-8 8 7.999 7.999 0 0 0 5.47 7.59c.4.076.547-.172.547-.384 0-.19-.007-.694-.01-1.36-2.226.482-2.695-1.074-2.695-1.074-.364-.923-.89-1.17-.89-1.17-.725-.496.056-.486.056-.486.803.056 1.225.824 1.225.824.714 1.224 1.873.87 2.33.666.072-.518.278-.87.507-1.07-1.777-.2-3.644-.888-3.644-3.954 0-.873.31-1.586.823-2.146-.09-.202-.36-1.016.07-2.118 0 0 .67-.214 2.2.82a7.67 7.67 0 0 1 2-.27 7.67 7.67 0 0 1 2 .27c1.52-1.034 2.19-.82 2.19-.82.43 1.102.16 1.916.08 2.118.51.56.82 1.273.82 2.146 0 3.074-1.87 3.75-3.65 3.947.28.24.54.73.54 1.48 0 1.07-.01 1.93-.01 2.19 0 .21.14.46.55.38A7.972 7.972 0 0 0 16 8.199a8 8 0 0 0-8-8Z"></path></svg><span class="self-baseline text-white">GitHub</span></a><a class="flex-none group relative isolate flex items-center rounded-lg px-2 py-0.5 text-[0.8125rem]/6 font-medium text-white/30 transition-colors hover:text-sky-300 gap-x-3" href="/feed.xml"><span class="absolute inset-0 -z-10 scale-75 rounded-lg bg-white/5 opacity-0 transition group-hover:scale-100 group-hover:opacity-100"></span><svg viewBox="0 0 16 16" aria-hidden="true" fill="currentColor" class="h-4 w-4 flex-none"><path fill-rule="evenodd" clip-rule="evenodd" d="M2.5 3a.5.5 0 0 1 .5-.5h.5c5.523 0 10 4.477 10 10v.5a.5.5 0 0 1-.5.5h-.5a.5.5 0 0 1-.5-.5v-.5A8.5 8.5 0 0 0 3.5 4H3a.5.5 0 0 1-.5-.5V3Zm0 4.5A.5.5 0 0 1 3 7h.5A5.5 5.5 0 0 1 9 12.5v.5a.5.5 0 0 1-.5.5H8a.5.5 0 0 1-.5-.5v-.5a4 4 0 0 0-4-4H3a.5.5 0 0 1-.5-.5v-.5Zm0 5a1 1 0 1 1 2 0 1 1 0 0 1-2 0Z"></path></svg><span class="self-baseline text-white">RSS</span></a></div></div></div><div class="flex flex-1 items-end justify-center pb-4 lg:justify-start lg:pb-6"><p class="flex items-baseline gap-x-2 text-[0.8125rem]/6 text-gray-500">Brought to you by<!-- --> <a class="group relative isolate flex items-center rounded-lg px-2 py-0.5 text-[0.8125rem]/6 font-medium text-white/30 transition-colors hover:text-sky-300 gap-x-2" href="#"><span class="absolute inset-0 -z-10 scale-75 rounded-lg bg-white/5 opacity-0 transition group-hover:scale-100 group-hover:opacity-100"></span><svg viewBox="0 0 16 16" aria-hidden="true" fill="currentColor" class="h-4 w-4 flex-none"><path d="M9.51762 6.77491L15.3459 0H13.9648L8.90409 5.88256L4.86212 0H0.200195L6.31244 8.89547L0.200195 16H1.58139L6.92562 9.78782L11.1942 16H15.8562L9.51728 6.77491H9.51762ZM7.62588 8.97384L7.00658 8.08805L2.07905 1.03974H4.20049L8.17706 6.72795L8.79636 7.61374L13.9654 15.0075H11.844L7.62588 8.97418V8.97384Z"></path></svg>